REM DIRINDEX 1\4,1\2\5,1\2\6,1\2\7,1\3\8,1\3\9,1\3\10,1\3\11
REM DIRNAME folder01,folder02,folder03,folder04,folder05,folder06,folder07,folder08,folder09,folder10,folder11
TITLE ""
FILE "t_j_30.mp3" MP3
  TRACK 01 AUDIO
    TITLE "8:cjc108_2445"
    INDEX 01 00:00:00
  TRACK 02 AUDIO
    TITLE "0:"
    INDEX 01 00:02:53
  TRACK 03 AUDIO
    TITLE "9:cjc108_2446"
    INDEX 01 00:03:66
  TRACK 04 AUDIO
    TITLE "0:"
    INDEX 01 00:04:68
  TRACK 05 AUDIO
    TITLE "10:cjc108_2447"
    INDEX 01 00:04:72
  TRACK 06 AUDIO
    TITLE "0:"
    INDEX 01 00:06:04
  TRACK 07 AUDIO
    TITLE "9:cjc108_2448"
    INDEX 01 00:06:57
  TRACK 08 AUDIO
    TITLE "0:"
    INDEX 01 00:08:03
  TRACK 09 AUDIO
    TITLE "10:cjc108_2449"
    INDEX 01 00:08:09
  TRACK 10 AUDIO
    TITLE "0:"
    INDEX 01 00:09:34
  TRACK 11 AUDIO
    TITLE "9:cjc108_2450"
    INDEX 01 00:10:10
  TRACK 12 AUDIO
    TITLE "0:"
    INDEX 01 00:11:07
  TRACK 13 AUDIO
    TITLE "10:cjc108_2451"
    INDEX 01 00:11:11
  TRACK 14 AUDIO
    TITLE "0:"
    INDEX 01 00:13:02
  TRACK 15 AUDIO
    TITLE "11:cjc108_2452"
    INDEX 01 00:13:57
  TRACK 16 AUDIO
    TITLE "0:"
    INDEX 01 00:19:54
  TRACK 17 AUDIO
    TITLE "9:cjc108_2453"
    INDEX 01 00:21:31
  TRACK 18 AUDIO
    TITLE "0:"
    INDEX 01 00:22:38
  TRACK 19 AUDIO
    TITLE "10:cjc108_2454"
    INDEX 01 00:22:42
  TRACK 20 AUDIO
    TITLE "0:"
    INDEX 01 00:23:50
  TRACK 21 AUDIO
    TITLE "11:cjc108_2455"
    INDEX 01 00:24:25
  TRACK 22 AUDIO
    TITLE "0:"
    INDEX 01 00:28:08
  TRACK 23 AUDIO
    TITLE "9:cjc108_2456"
    INDEX 01 00:29:64
  TRACK 24 AUDIO
    TITLE "0:"
    INDEX 01 00:31:02
  TRACK 25 AUDIO
    TITLE "10:cjc108_2457"
    INDEX 01 00:31:20
  TRACK 26 AUDIO
    TITLE "0:"
    INDEX 01 00:33:54
  TRACK 27 AUDIO
    TITLE "9:cjc108_2458"
    INDEX 01 00:34:34
  TRACK 28 AUDIO
    TITLE "0:"
    INDEX 01 00:35:27
  TRACK 29 AUDIO
    TITLE "10:cjc108_2459"
    INDEX 01 00:35:33
  TRACK 30 AUDIO
    TITLE "0:"
    INDEX 01 00:37:38
  TRACK 31 AUDIO
    TITLE "9:cjc108_2460"
    INDEX 01 00:38:20
  TRACK 32 AUDIO
    TITLE "0:"
    INDEX 01 00:39:27
  TRACK 33 AUDIO
    TITLE "10:cjc108_2461"
    INDEX 01 00:39:33
  TRACK 34 AUDIO
    TITLE "0:"
    INDEX 01 00:41:45
  TRACK 35 AUDIO
    TITLE "11:cjc108_2462"
    INDEX 01 00:42:23
  TRACK 36 AUDIO
    TITLE "0:"
    INDEX 01 00:49:10
  TRACK 37 AUDIO
    TITLE "9:cjc108_2463"
    INDEX 01 00:50:66
  TRACK 38 AUDIO
    TITLE "0:"
    INDEX 01 00:51:60
  TRACK 39 AUDIO
    TITLE "10:cjc108_2464"
    INDEX 01 00:51:62
  TRACK 40 AUDIO
    TITLE "0:"
    INDEX 01 00:53:64
  TRACK 41 AUDIO
    TITLE "9:cjc108_2465"
    INDEX 01 00:54:48
  TRACK 42 AUDIO
    TITLE "0:"
    INDEX 01 00:55:40
  TRACK 43 AUDIO
    TITLE "10:cjc108_2466"
    INDEX 01 00:55:42
  TRACK 44 AUDIO
    TITLE "0:"
    INDEX 01 00:56:47
  TRACK 45 AUDIO
    TITLE "9:cjc108_2467"
    INDEX 01 00:57:29
  TRACK 46 AUDIO
    TITLE "0:"
    INDEX 01 00:58:44
  TRACK 47 AUDIO
    TITLE "10:cjc108_2468"
    INDEX 01 00:58:54
  TRACK 48 AUDIO
    TITLE "0:"
    INDEX 01 00:59:67
  TRACK 49 AUDIO
    TITLE "9:cjc108_2469"
    INDEX 01 01:00:51
  TRACK 50 AUDIO
    TITLE "0:"
    INDEX 01 01:01:52
  TRACK 51 AUDIO
    TITLE "10:cjc108_2470"
    INDEX 01 01:01:56
  TRACK 52 AUDIO
    TITLE "0:"
    INDEX 01 01:03:29
  TRACK 53 AUDIO
    TITLE "11:cjc108_2471"
    INDEX 01 01:04:09
  TRACK 54 AUDIO
    TITLE "0:"
    INDEX 01 01:15:40
  TRACK 55 AUDIO
    TITLE "9:cjc108_2472"
    INDEX 01 01:17:16
  TRACK 56 AUDIO
    TITLE "0:"
    INDEX 01 01:18:25
  TRACK 57 AUDIO
    TITLE "10:cjc108_2473"
    INDEX 01 01:18:29
  TRACK 58 AUDIO
    TITLE "0:"
    INDEX 01 01:19:72
  TRACK 59 AUDIO
    TITLE "11:cjc108_2474"
    INDEX 01 01:20:48
  TRACK 60 AUDIO
    TITLE "0:"
    INDEX 01 01:24:02
  TRACK 61 AUDIO
    TITLE "9:cjc108_2475"
    INDEX 01 01:25:58
  TRACK 62 AUDIO
    TITLE "0:"
    INDEX 01 01:26:58
  TRACK 63 AUDIO
    TITLE "10:cjc108_2476"
    INDEX 01 01:27:22
  TRACK 64 AUDIO
    TITLE "0:"
    INDEX 01 01:30:09
  TRACK 65 AUDIO
    TITLE "9:cjc108_2477"
    INDEX 01 01:30:60
  TRACK 66 AUDIO
    TITLE "0:"
    INDEX 01 01:31:45
  TRACK 67 AUDIO
    TITLE "10:cjc108_2478"
    INDEX 01 01:31:55
  TRACK 68 AUDIO
    TITLE "0:"
    INDEX 01 01:33:33
  TRACK 69 AUDIO
    TITLE "11:cjc108_2479"
    INDEX 01 01:34:08
  TRACK 70 AUDIO
    TITLE "0:"
    INDEX 01 01:36:50
